<svg width="64" height="64" viewBox="0 0 64 64" fill="none" xmlns="http://www.w3.org/2000/svg">
<circle cx="32" cy="32" r="32" fill="black" fill-opacity="0.2" style="fill:black;fill-opacity:0.2;"/>
<path d="M41.3332 34.6667C43.3198 32.72 45.3332 30.3867 45.3332 27.3333C45.3332 25.3884 44.5606 23.5232 43.1853 22.1479C41.81 20.7726 39.9448 20 37.9998 20C35.6532 20 33.9998 20.6667 31.9998 22.6667C29.9998 20.6667 28.3465 20 25.9998 20C24.0549 20 22.1897 20.7726 20.8144 22.1479C19.4391 23.5232 18.6665 25.3884 18.6665 27.3333C18.6665 30.4 20.6665 32.7333 22.6665 34.6667L31.9998 44L41.3332 34.6667Z" stroke="#D8A409" style="stroke:#D8A409;stroke:color(display-p3 0.8471 0.6431 0.0353);stroke-opacity:1;" stroke-width="2" stroke-linecap="round" stroke-linejoin="round"/>
<path d="M31.9998 22.6666L28.0531 26.6133C27.7822 26.8822 27.5672 27.2021 27.4205 27.5545C27.2738 27.9069 27.1982 28.2849 27.1982 28.6666C27.1982 29.0484 27.2738 29.4263 27.4205 29.7787C27.5672 30.1311 27.7822 30.451 28.0531 30.72C29.1465 31.8133 30.8931 31.8533 32.0531 30.8133L34.8131 28.28C35.5049 27.6522 36.4057 27.3045 37.3398 27.3045C38.274 27.3045 39.1747 27.6522 39.8665 28.28L43.8131 31.8266" stroke="#D8A409" style="stroke:#D8A409;stroke:color(display-p3 0.8471 0.6431 0.0353);stroke-opacity:1;" stroke-width="2" stroke-linecap="round" stroke-linejoin="round"/>
<path d="M40.0002 36L37.3335 33.3334" stroke="#D8A409" style="stroke:#D8A409;stroke:color(display-p3 0.8471 0.6431 0.0353);stroke-opacity:1;" stroke-width="2" stroke-linecap="round" stroke-linejoin="round"/>
<path d="M36.0002 40L33.3335 37.3334" stroke="#D8A409" style="stroke:#D8A409;stroke:color(display-p3 0.8471 0.6431 0.0353);stroke-opacity:1;" stroke-width="2" stroke-linecap="round" stroke-linejoin="round"/>
</svg>
