<svg width="25" height="32" viewBox="0 0 25 32" fill="none" xmlns="http://www.w3.org/2000/svg">
<path d="M23.5038 6.94502C23.3533 6.62715 23.1912 6.31787 23.0173 6.01719C20.854 2.28694 16.8819 0 12.6038 0H12.4366C11.6241 0 10.825 0.0824814 10.046 0.240554V0.242274C8.71024 0.513744 7.43635 1.01203 6.27614 1.70618C5.59572 2.1134 4.95543 2.58591 4.36363 3.122C3.20341 4.17355 2.23379 5.46221 1.53665 6.94502C0.118987 9.95877 -0.039834 13.2973 0.978281 16.311C1.43467 17.6581 2.12679 18.9416 3.04794 20.0979L8.94261 27.5052L8.97271 27.4674C9.52272 26.7732 9.89887 25.9863 10.1028 25.1615C10.372 24.0619 10.3352 22.8986 9.98413 21.8162C9.7668 21.1443 9.43078 20.5034 8.97271 19.9296L6.67736 17.0464C4.85011 14.7491 4.49737 11.7749 5.73448 9.09279C6.95153 6.46392 9.56952 4.82131 12.4049 4.82131H12.6372C15.4709 4.82131 18.0889 6.46392 19.3043 9.0945C19.3076 9.1031 19.311 9.10997 19.3143 9.11856C19.3594 9.21478 19.4029 9.31444 19.443 9.41238C19.8392 10.3729 20.0348 11.3677 20.0348 12.3488C20.0348 14.0189 19.4681 15.6564 18.3614 17.0464L11.0624 26.2113C10.1379 27.3694 10.1413 29.0361 11.0691 30.1924L12.5202 32L21.9925 20.0979C24.9733 16.3557 25.555 11.3058 23.5038 6.94502Z" fill="url(#paint0_linear_1741_297)" style=""/>
<defs>
<linearGradient id="paint0_linear_1741_297" x1="3.44837" y1="22.6762" x2="22.0893" y2="4.53906" gradientUnits="userSpaceOnUse">
<stop stop-color="#D19D00" style="stop-color:#D19D00;stop-color:color(display-p3 0.8196 0.6157 0.0000);stop-opacity:1;"/>
<stop offset="1" stop-color="#FFCF40" style="stop-color:#FFCF40;stop-color:color(display-p3 1.0000 0.8118 0.2510);stop-opacity:1;"/>
</linearGradient>
</defs>
</svg>
