<svg width="24" height="24" viewBox="0 0 24 24" fill="none" xmlns="http://www.w3.org/2000/svg">
<circle cx="12" cy="12" r="11.5" fill="#3D3B35" stroke="#D8A409" style="fill:#3D3B35;fill:color(display-p3 0.2392 0.2314 0.2078);fill-opacity:1;stroke:#D8A409;stroke:color(display-p3 0.8471 0.6431 0.0353);stroke-opacity:1;"/>
<path d="M8.39961 9.6C8.39961 8.64522 8.77889 7.72955 9.45403 7.05442C10.1292 6.37928 11.0448 6 11.9996 6C12.9544 6 13.8701 6.37928 14.5452 7.05442C15.2203 7.72955 15.5996 8.64522 15.5996 9.6C15.5996 13.8 17.3996 15 17.3996 15H6.59961C6.59961 15 8.39961 13.8 8.39961 9.6Z" stroke="white" style="stroke:white;stroke-opacity:1;" stroke-width="1.52" stroke-linecap="round" stroke-linejoin="round"/>
<path d="M10.98 17.3999C11.0804 17.5826 11.228 17.7349 11.4075 17.841C11.5869 17.9471 11.7915 18.0031 12 18.0031C12.2084 18.0031 12.4131 17.9471 12.5925 17.841C12.7719 17.7349 12.9196 17.5826 13.02 17.3999" stroke="white" style="stroke:white;stroke-opacity:1;" stroke-width="1.52" stroke-linecap="round" stroke-linejoin="round"/>
</svg>
