<svg width="121" height="24" viewBox="0 0 121 24" fill="none" xmlns="http://www.w3.org/2000/svg">
<path d="M56.4025 6.07586C56.2919 5.84845 56.1727 5.6272 56.0448 5.41209C54.4542 2.74349 51.5337 1.10742 48.3881 1.10742H48.2652C47.6678 1.10742 47.0803 1.16643 46.5075 1.27951V1.28074C45.5253 1.47495 44.5887 1.83142 43.7356 2.32802C43.2353 2.61934 42.7646 2.95737 42.3294 3.34088C41.4764 4.09316 40.7634 5.01506 40.2508 6.07586C39.2085 8.23187 39.0917 10.6202 39.8403 12.7762C40.1759 13.7399 40.6847 14.6581 41.362 15.4854L45.6962 20.7845L45.7183 20.7574C46.1227 20.2608 46.3993 19.6979 46.5493 19.1078C46.7472 18.3212 46.7201 17.489 46.462 16.7146C46.3022 16.234 46.0551 15.7755 45.7183 15.3649L44.0306 13.3023C42.6871 11.6589 42.4278 9.53114 43.3374 7.61236C44.2322 5.73167 46.1571 4.55656 48.2419 4.55656H48.4127C50.4962 4.55656 52.4212 5.73167 53.3148 7.61358C53.3172 7.61973 53.3197 7.62465 53.3222 7.63079C53.3553 7.69963 53.3873 7.77092 53.4168 7.84099C53.7081 8.52811 53.8519 9.23982 53.8519 9.94169C53.8519 11.1365 53.4352 12.3079 52.6215 13.3023L47.2548 19.8589C46.5751 20.6874 46.5775 21.8797 47.2597 22.7069L48.3267 24.0001L55.2913 15.4854C57.483 12.8082 57.9108 9.19556 56.4025 6.07586Z" fill="url(#paint0_linear_1933_189)" style=""/>
<path d="M0 1.54114H3.05507L8.39368 16.2918L13.1525 3.14425C13.5008 2.18209 14.4144 1.54114 15.4377 1.54114H16.7049L9.90715 19.5389H6.82493L0 1.54114Z" fill="white" style="fill:white;fill-opacity:1;"/>
<path d="M16.7582 12.7416C16.7582 8.61336 19.7851 5.58643 24.0782 5.58643C28.3713 5.58643 31.3435 8.61336 31.3435 12.7416V13.7047H19.5102C19.8952 16.1264 21.7118 17.475 24.0782 17.475C25.5186 17.475 26.6094 17.1069 27.3957 16.3252C27.77 15.9531 28.2737 15.7409 28.8015 15.7409H30.7659C29.7199 18.2732 27.2434 19.8968 24.0782 19.8968C19.7851 19.8968 16.7582 16.8693 16.7582 12.7416ZM28.5915 11.3653C28.0687 9.1914 26.2798 8.00817 24.0782 8.00817C21.8218 8.00817 20.1154 9.21905 19.5926 11.3653H28.5915Z" fill="white" style="fill:white;fill-opacity:1;"/>
<path d="M33.9839 0H36.5986V17.53C36.5986 18.6394 35.6992 19.5389 34.5898 19.5389H33.9839V0Z" fill="white" style="fill:white;fill-opacity:1;"/>
<path d="M59.1077 12.6586C59.1077 8.14588 62.4648 5.58641 66.015 5.58641C68.2166 5.58641 70.088 6.57712 71.0787 8.33839V0C72.5225 1.68155e-08 73.6929 1.17044 73.6929 2.61426V12.6315C73.6929 17.0618 70.666 19.8967 66.4553 19.8967C62.1346 19.8967 59.1077 16.9246 59.1077 12.6586ZM71.0787 12.7416C71.0787 9.98959 69.2073 8.00816 66.4277 8.00816C63.6209 8.00816 61.7496 9.98959 61.7496 12.7416C61.7496 15.4936 63.6209 17.475 66.4277 17.475C69.2073 17.475 71.0787 15.4936 71.0787 12.7416Z" fill="white" style="fill:white;fill-opacity:1;"/>
<path d="M75.8383 12.8517C75.8383 8.58621 78.8652 5.58643 83.1859 5.58643C87.4514 5.58643 90.4235 8.50328 90.4235 12.8517V17.1448C90.4235 18.467 89.3517 19.5389 88.0294 19.5389V16.5667C87.1212 18.7683 85.1121 19.8968 82.7456 19.8968C79.1954 19.8968 75.8383 17.3373 75.8383 12.8517ZM87.8369 12.7416C87.8369 9.9896 85.9656 8.00817 83.1583 8.00817C80.3515 8.00817 78.4802 9.9896 78.4802 12.7416C78.4802 15.4936 80.3515 17.475 83.1583 17.475C85.9656 17.475 87.8369 15.4936 87.8369 12.7416Z" fill="white" style="fill:white;fill-opacity:1;"/>
<path d="M93.1188 14.3927V1.12793H95.733V5.94427H103.218C103.218 7.2665 102.147 8.33838 100.824 8.33838H95.733V14.3927C95.733 16.5391 96.8615 17.475 98.5675 17.475C100.274 17.475 101.43 16.5667 101.43 14.3927V14.0902H104.017V14.3927C104.017 18.0802 101.815 19.8967 98.5675 19.8967C95.3204 19.8967 93.1188 18.0802 93.1188 14.3927Z" fill="white" style="fill:white;fill-opacity:1;"/>
<path d="M105.639 12.7416C105.639 8.61336 108.666 5.58643 112.959 5.58643C117.252 5.58643 120.224 8.61336 120.224 12.7416V13.7047H108.391C108.776 16.1264 110.593 17.475 112.959 17.475C114.371 17.475 115.448 17.1211 116.23 16.3706C116.641 15.9764 117.178 15.7409 117.747 15.7409H119.646C118.601 18.2732 116.124 19.8968 112.959 19.8968C108.666 19.8968 105.639 16.8693 105.639 12.7416ZM117.472 11.3653C116.95 9.1914 115.161 8.00817 112.959 8.00817C110.703 8.00817 108.996 9.21905 108.474 11.3653H117.472Z" fill="white" style="fill:white;fill-opacity:1;"/>
<defs>
<linearGradient id="paint0_linear_1933_189" x1="41.6565" y1="17.3298" x2="54.9971" y2="3.98922" gradientUnits="userSpaceOnUse">
<stop stop-color="#D19D00" style="stop-color:#D19D00;stop-color:color(display-p3 0.8196 0.6157 0.0000);stop-opacity:1;"/>
<stop offset="1" stop-color="#FFCF40" style="stop-color:#FFCF40;stop-color:color(display-p3 1.0000 0.8118 0.2510);stop-opacity:1;"/>
</linearGradient>
</defs>
</svg>
